<?xml version="1.0" standalone="no"?>
<!DOCTYPE svg PUBLIC "-//W3C//DTD SVG 20010904//EN"
 "http://www.w3.org/TR/2001/REC-SVG-20010904/DTD/svg10.dtd">
<svg version="1.0" xmlns="http://www.w3.org/2000/svg"
 width="700.000000pt" height="1280.000000pt" viewBox="0 0 700.000000 1280.000000"
 preserveAspectRatio="xMidYMid meet">
<metadata>
Created by potrace 1.15, written by Peter Selinger 2001-2017
</metadata>
<g transform="translate(0.000000,1280.000000) scale(0.100000,-0.100000)"
fill="#795548" stroke="none">
<path d="M3310 12794 c-134 -11 -276 -27 -358 -40 -754 -118 -1435 -473 -1967
-1025 -276 -287 -518 -641 -671 -980 -416 -927 -415 -1986 4 -2906 158 -346
384 -676 681 -992 49 -52 50 -55 31 -68 -27 -19 -25 -41 5 -53 79 -31 79 -31
65 -40 -24 -15 3 -53 72 -106 116 -88 228 -185 239 -206 22 -41 -12 -206 -100
-481 -27 -85 -61 -212 -75 -283 -31 -150 -45 -348 -27 -382 33 -63 326 -285
471 -359 113 -57 173 -71 375 -88 199 -18 220 -21 260 -44 55 -32 298 -233
404 -333 57 -54 120 -107 140 -117 20 -11 43 -27 53 -37 33 -38 98 -232 98
-295 0 -21 5 -41 10 -44 16 -10 12 -158 -5 -181 -8 -10 -15 -30 -15 -44 0 -14
-13 -49 -29 -79 -26 -52 -30 -55 -82 -66 -83 -18 -160 -60 -220 -121 -30 -30
-74 -67 -99 -81 -25 -14 -61 -41 -80 -58 -19 -18 -64 -52 -100 -75 -146 -97
-226 -169 -441 -391 -313 -325 -376 -394 -399 -439 -31 -61 -26 -147 25 -406
61 -317 63 -327 75 -614 17 -405 25 -489 50 -512 24 -22 24 -27 6 -54 -8 -11
-16 -44 -18 -74 l-3 -55 60 -13 c33 -7 71 -16 85 -18 l25 -6 -35 -29 c-19 -16
-78 -65 -130 -108 -52 -43 -104 -88 -115 -101 -47 -53 -172 -84 -272 -68 -79
13 -121 -1 -173 -58 -53 -58 -49 -63 87 -113 l98 -36 210 1 c116 0 359 5 542
10 315 9 333 10 348 29 8 11 13 29 10 40 -3 11 -5 39 -5 63 0 30 -6 47 -20 59
-13 12 -20 30 -20 55 0 57 -46 192 -77 222 -33 33 -42 82 -42 246 -1 125 -27
276 -53 307 -7 9 -9 51 -4 136 10 184 -35 609 -71 663 -10 15 -18 48 -18 78
-1 28 -5 59 -10 69 -6 14 -2 17 22 17 17 0 38 9 48 20 10 11 55 40 100 65 46
25 107 61 136 81 30 20 127 65 217 100 89 35 181 73 204 85 23 12 81 36 128
54 47 18 119 47 160 65 138 59 181 71 198 57 29 -24 94 -119 132 -194 63 -123
98 -233 140 -443 45 -227 58 -264 143 -413 l62 -108 125 -78 c69 -43 186 -113
260 -156 74 -42 209 -130 300 -194 321 -226 425 -297 475 -323 60 -31 95 -67
95 -100 0 -15 4 -28 8 -28 4 0 25 -22 46 -50 21 -27 46 -50 55 -50 9 0 39 11
68 24 l52 25 7 -46 c4 -25 4 -74 1 -108 -4 -39 -1 -75 6 -95 11 -30 10 -33
-30 -71 -23 -21 -52 -39 -63 -39 -27 0 -130 -102 -130 -128 0 -10 6 -27 14
-38 14 -18 28 -19 253 -19 258 1 274 4 341 60 18 15 45 51 59 79 27 53 53 191
53 283 0 46 3 52 22 55 27 4 39 26 73 143 38 130 32 166 -36 228 -31 28 -70
52 -94 58 -22 6 -69 24 -105 39 -36 16 -78 32 -95 36 -47 10 -95 43 -160 109
-38 38 -106 87 -185 135 -141 84 -188 119 -313 237 -101 95 -270 225 -338 259
-26 13 -64 24 -84 24 -21 0 -71 15 -115 35 -43 19 -85 35 -95 35 -13 0 -16 6
-11 23 6 25 -21 57 -58 71 -17 6 -18 16 -13 119 3 61 10 144 17 182 6 40 14
238 17 460 7 521 4 682 -13 723 -9 23 -11 47 -4 90 30 199 31 218 21 287 -6
39 -15 79 -20 90 -84 193 -104 269 -136 505 -16 112 -45 227 -140 540 -26 85
-65 213 -86 284 -42 137 -50 222 -24 232 8 3 61 -3 117 -15 230 -47 375 -46
540 5 46 14 115 33 153 43 122 31 141 45 318 231 183 193 197 211 316 387 93
138 142 185 254 244 43 22 93 53 110 69 32 28 126 62 252 91 55 13 60 16 57
38 -2 25 39 70 66 71 14 0 17 56 3 64 -5 4 -49 9 -99 12 l-89 7 76 70 c97 89
232 235 330 357 319 396 534 818 665 1310 118 445 144 964 70 1440 -159 1025
-777 1927 -1690 2470 -412 245 -858 394 -1364 456 -120 14 -497 26 -590 18z
m375 -234 c481 -32 871 -136 1275 -341 643 -326 1152 -837 1465 -1474 205
-416 303 -794 335 -1288 30 -461 -70 -1019 -257 -1442 -223 -504 -549 -931
-968 -1268 -66 -54 -81 -61 -83 -46 -2 11 -10 19 -18 19 -18 0 -113 -96 -125
-127 -15 -41 -377 -241 -581 -322 -442 -176 -961 -261 -1407 -232 -160 10
-479 52 -501 66 -21 13 -72 120 -84 175 -16 83 -80 162 -177 220 -81 50 -132
62 -208 49 -97 -15 -171 -67 -246 -172 l-20 -27 -144 80 c-486 273 -872 627
-1166 1070 -524 792 -676 1796 -411 2712 297 1025 1110 1865 2121 2192 261 84
536 136 820 155 174 12 213 12 380 1z m-1892 -6314 c73 -41 157 -86 187 -101
l55 -27 19 -79 19 -80 -22 -15 c-63 -45 27 -166 146 -196 34 -9 58 -24 80 -48
47 -54 193 -250 193 -259 0 -4 -16 -29 -35 -54 l-35 -45 -59 5 c-65 6 -165 -9
-250 -39 -30 -10 -57 -18 -61 -18 -4 0 -35 18 -68 40 -88 57 -156 74 -257 66
-70 -6 -84 -4 -96 10 -21 26 -25 370 -5 554 16 153 47 360 54 360 2 0 63 -33
135 -74z m2927 -231 c0 -2 -15 -12 -32 -21 -18 -9 -64 -40 -103 -69 -104 -78
-125 -83 -380 -88 l-220 -5 130 24 c173 31 347 76 486 123 63 21 115 39 117
40 1 1 2 -1 2 -4z m-1750 -173 c123 -19 124 -22 13 -42 -72 -13 -73 -13 -113
14 -39 26 -52 46 -27 46 6 -1 64 -9 127 -18z"/>
<path d="M2203 11355 c-87 -19 -155 -59 -218 -127 -61 -65 -91 -135 -101 -230
-27 -268 190 -478 471 -454 251 21 405 191 393 433 -8 178 -107 310 -273 367
-70 24 -196 29 -272 11z"/>
<path d="M1865 10197 c-2 -7 -9 -255 -15 -552 -12 -594 -26 -1193 -36 -1581
l-7 -252 349 -6 c192 -4 367 -8 389 -9 l40 -2 2 85 c1 47 7 306 13 575 20 922
30 1340 35 1536 l6 197 -268 6 c-147 3 -321 8 -386 10 -87 4 -119 2 -122 -7z"/>
<path d="M4380 10125 c-178 -39 -361 -162 -456 -305 -15 -22 -29 -40 -33 -40
-3 0 -5 72 -3 159 l3 160 -43 5 c-24 3 -197 8 -384 11 l-342 6 -6 -213 c-3
-117 -10 -422 -16 -678 -15 -670 -29 -1226 -35 -1371 l-5 -127 133 -6 c72 -3
247 -8 388 -12 l256 -6 7 289 c25 1078 27 1139 42 1198 30 119 123 234 233
288 62 30 73 32 176 32 100 0 115 -3 166 -28 105 -51 174 -151 205 -299 14
-63 15 -131 9 -493 -4 -231 -10 -550 -14 -710 -4 -159 -7 -291 -7 -291 1 -2
770 -22 773 -20 5 3 26 1016 27 1296 1 314 0 341 -22 438 -84 381 -271 603
-587 698 -77 23 -112 27 -245 30 -109 3 -174 -1 -220 -11z"/>
</g>
</svg>
